<svg xmlns="http://www.w3.org/2000/svg" width="32" height="32" viewBox="0 0 32 32"><path fill="#777777" d="M26.6 23.4V12h-2.4a7.9 7.9 0 01-.8 6.5c-.8 1.2-1.8 2.2-3 3s-2.8 1.1-4.4 1.1c-2.3 0-4.3-.8-6-2.4s-2.5-3.6-2.5-5.9c0-.8.1-1.6.4-2.3H5.3v11.5c0 .4.1.7.3.9.3.1.5.3.8.3h19.1c.3 0 .6-.2.8-.3.2-.2.3-.5.3-.9zm-5-9.5a5 5 0 00-1.7-3.7A5.4 5.4 0 0016 8.6c-1.5 0-2.8.5-3.9 1.6a5.2 5.2 0 000 7.6c1 1 2.4 1.5 3.9 1.5 1.6 0 2.8-.5 4-1.5 1-1.1 1.6-2.4 1.6-3.9zm5-6.4v-3c0-.3-.1-.6-.4-.8s-.4-.4-.8-.4h-3.1c-.4 0-.7.1-1 .4s-.2.5-.2.9v2.9c0 .4 0 .6.3.9s.5.3.9.3h3c.4 0 .7 0 1-.3s.3-.5.3-.9zm3-3.7v20.4c0 1-.2 1.8-1 2.5s-1.4 1-2.4 1H5.8c-1 0-1.8-.3-2.5-1s-1-1.5-1-2.5V3.8c0-1 .3-1.8 1-2.5s1.5-1 2.5-1h20.4c1 0 1.8.3 2.5 1s1 1.5 1 2.5z"/></svg>