<?xml version="1.0" encoding="utf-8"?><svg width="88.328px" height="38.719px" xmlns="http://www.w3.org/2000/svg" viewBox="0 0 3156.1 1383.3" style="enable-background:new 0 0 3156.1 1383.3"><path d="M241 1081c-49-24-61-35-61-58 0-26 21-42 54-42 24 0 48 9 77 30 4 2 9 2 12-2v-1l45-77c2-4 1-9-3-12-44-27-86-39-133-39-102 0-177 64-177 151 0 65 25 96 111 140 46 22 57 34 57 55 0 29-26 49-65 49-31 0-55-9-94-35-4-3-9-2-12 2v1l-46 77c-2 4-1 9 3 12 60 36 100 48 155 48 108 0 184-68 184-164 0-64-27-98-107-135zM1545 988l11-89c0-5-3-9-8-10h-311c-4 0-8 3-8 8l-11 89c-1 4 3 9 7 9h85c4 0 8 4 8 9v1l-44 356c0 5 3 9 7 9l1 1h105c4 0 8-4 8-8l45-360c1-5 4-8 9-8h87c5 0 8-3 9-7zM1803 1265h-128c-5 0-9-4-9-9v-1l9-67c0-4 4-7 8-7h122c4 0 8-3 9-7l10-89c1-5-2-9-7-9h-119a8 8 0 01-8-10l8-63c0-4 4-7 8-7h127c4 0 7-4 8-8l11-89c0-5-3-9-7-9l-1-1h-247c-4 0-8 4-8 8l-57 464c-1 5 2 9 7 10h253c4 0 8-3 8-7l11-90c1-4-2-9-7-9h-1zM2188 932c-36-36-85-43-140-43h-153c-4 0-8 3-8 8l-58 464c0 5 3 9 8 10h106c4 0 8-3 8-8l18-144c0-5 4-8 8-8h47c76 0 134-19 167-55s38-79 38-114c0-31-4-75-41-110zm-85 130l-2 9-2 4-2 4-1 3-7 8-3 3-1 1-4 2-4 3-4 2-9 4a91 91 0 01-14 3l-14 2h-46l-1-1h-2l-1-1c-2-2-3-5-2-7l12-103v-1l1-1v-1l1-2 1-1 1-1h2l2-1h27c17 0 43 0 59 16a43 43 0 0111 21l1 4a87 87 0 011 31zM2609 1358l-100-166a8 8 0 014-12c27-9 39-18 54-35 27-27 39-63 39-106 0-44-13-83-36-108-28-29-68-42-134-42h-149c-4 0-8 3-8 8l-58 464c0 5 3 9 8 10h106c4 0 8-3 8-8l19-158c1-5 5-8 10-8l6 4 95 165c1 3 4 5 7 5h122c4 0 8-4 8-9l-1-4zm-213-249h-13c-4 0-8-3-8-8v-1l13-107 1-2 1-2 1-1 6-2h15c51 0 69 15 69 56 0 46-27 67-85 67zM2899 880c-159 0-272 106-272 257 0 145 106 243 263 243 156 0 261-107 261-265v-9c-5-137-106-226-252-226zm120 297l-3 7a83 83 0 01-7 14l-5 9a105 105 0 01-12 15l-4 5a98 98 0 01-14 11l-1 1-4 2-8 6-4 2h-1l-5 2a98 98 0 01-15 6l-4 2h-2l-6 2-9 1-5 1a169 169 0 01-70-5 125 125 0 01-50-30 121 121 0 01-32-54 150 150 0 015-96 130 130 0 0188-77 156 156 0 0143-5 131 131 0 01105 46l6 10a137 137 0 0110 19v1c1 2 3 5 3 8l3 9v1a130 130 0 015 30v8c1 17-2 34-7 49zM772 1329l-26-37-106-152c-3-3-2-7 0-10l170-227c3-4 2-9-2-12l-5-2H684c-2 0-5 1-6 3l-149 197c-1 2-3 2-5 1l-1-4 23-187c1-5-2-9-7-10H433c-4 0-8 3-8 7l-58 465c0 5 3 9 8 9l1 1h105c4 0 8-4 8-8l24-198c1-2 2-3 4-3s3 1 3 2l31 53 101 150c1 2 4 3 7 3h126a8 8 0 007-13l-20-28z"/><path d="M1241 1360l-113-464c0-4-4-7-8-7H995c-3 0-6 2-8 5l-200 404 50 73h44c3 0 6-2 8-5l32-71c1-3 4-5 7-5h160c4 0 8 3 9 6l17 68c1 4 4 7 8 7h110c5 0 9-4 9-9v-2zm-179-165h-81a8 8 0 01-8-12l43-96 10-22c2-6 5-7 9-7s8 3 9 7v2l8 36 18 81c1 5-2 9-7 10l-1 1zM2234 371a160 160 0 00-1-19c-18-187-274-333-605-347h-24l-26-1-26 1h-8c-342 9-607 159-621 351l-1 5v21c9 192 268 344 606 357a22803 22803 0 0050 1 1095 1095 0 0050-1c335-13 593-162 606-352v-1-3-11-1zm-612 230c-1 14-14 26-29 26h-15c-80 0-157-9-229-26-68-16-128-39-179-67-86-48-135-107-135-162s49-113 135-161c51-29 111-51 179-67 72-18 149-26 229-26h20a898 898 0 0135 1l15 1a21 21 0 013 0c17 2 29 16 27 33v1l-56 447z"/></svg>