<svg id="DK_alt_VISA" xmlns="http://www.w3.org/2000/svg" viewBox="0 0 79.09 74.33"><defs><style>.cls-1{fill:#e2e2e2}</style></defs><path class="cls-1" d="M25.77 52.54l-5.24 13.24-2.12-11.25a2.35 2.35 0 00-2.32-2H7.52l-.11.57a20.88 20.88 0 015 1.66 2.12 2.12 0 011.2 1.71l4 15.52h5.31l8.16-19.46zM47 56.31a9.51 9.51 0 015 .87l.88-4.13a13.51 13.51 0 00-4.7-.86c-5 0-8.48 2.65-8.5 6.43 0 2.8 2.49 4.36 4.39 5.3s2.62 1.56 2.62 2.41c0 1.3-1.56 1.88-3 1.91A10.55 10.55 0 0138.45 67l-.91 4.27a15.12 15.12 0 005.59 1c5.29 0 8.75-2.61 8.76-6.66 0-5.12-7.1-5.41-7-7.71-.03-.66.63-1.4 2.11-1.59zm18.64-3.77h-4.3A2.29 2.29 0 0059.18 54l-7.55 18h5.28L58 69.09h6.45L65 72h4.65zm-6.23 12.57l2.65-7.31 1.52 7.31zm-26.2-12.57L29.05 72h5l4.16-19.46z"/><g id="Layer_1-2" data-name="Layer 1-2"><path class="cls-1" d="M21.53 35.85h-.2a1.67 1.67 0 00-1.51.76 1.55 1.55 0 00-1.41-.76 1.42 1.42 0 00-1.25.64V36h-.92v4.27h.93v-2.39a1 1 0 01.83-1.12h.19c.62 0 .93.39.93 1.12v2.38h.94v-2.38a1 1 0 01.94-1.12h.18c.64 0 .93.39.93 1.12v2.38h1v-2.71a1.6 1.6 0 00-1.58-1.7zm15.27 3.38a1.66 1.66 0 01-.82.23c-.45 0-.61-.27-.61-.71v-1.94h1.51V36h-1.53v-1.3h-.94V36h-.85v.85h.87v2c0 1 .38 1.59 1.48 1.59a2.18 2.18 0 001.16-.44zm8-3.4a1.27 1.27 0 00-1.13.63V36h-.92v4.27h.93v-2.43c0-.71.31-1.1.89-1.1a1.7 1.7 0 01.59.1l.27-.89a1.75 1.75 0 00-.65-.12zm-13.37 1.84L31 37.6c-.4-.05-.72-.13-.72-.42s.3-.49.81-.49a2.72 2.72 0 011.34.36l.42-.75a3.16 3.16 0 00-1.75-.45c-1.08 0-1.78.52-1.78 1.37s.51 1.12 1.47 1.26l.45.06c.51.07.74.21.74.45s-.33.51-1 .51a2.28 2.28 0 01-1.42-.44l-.44.72a3 3 0 001.84.56c1.23 0 2-.59 2-1.4s-.6-1.14-1.53-1.27zm26.24-1.84a1.29 1.29 0 00-1.13.63V36h-.91v4.27h.92v-2.43c0-.71.31-1.1.9-1.1a1.69 1.69 0 01.58.1l.29-.89a1.93 1.93 0 00-.65-.12zM48 39.44a1.37 1.37 0 010-2.73 1.84 1.84 0 011.11.38l.45-.75a2.26 2.26 0 00-1.56-.51 2.16 2.16 0 00-2.27 2 1.2 1.2 0 000 .19 2.14 2.14 0 002.07 2.24h.2a2.21 2.21 0 001.54-.51l-.45-.75a1.91 1.91 0 01-1.09.44zM53.5 36v.52a1.62 1.62 0 00-1.34-.63 2.24 2.24 0 000 4.47 1.64 1.64 0 001.34-.63v.52h.92V36zm-1.23 3.49A1.27 1.27 0 0151 38.18v-.1a1.29 1.29 0 111.3 1.37zm-10.47-1.4a2 2 0 00-2-2.23 2.24 2.24 0 00.07 4.47H40a2.64 2.64 0 001.65-.59l-.45-.68a2 2 0 01-1.24.44 1.16 1.16 0 01-1.27-1h3.11zm-3.19-.37a1.1 1.1 0 011.14-1 1 1 0 011.08 1zm23.53-3.47v2.23a1.63 1.63 0 00-1.34-.63 2.24 2.24 0 000 4.47 1.66 1.66 0 001.34-.63v.52H63v-6zm-1.25 5.21a1.29 1.29 0 01-1.3-1.27.34.34 0 010-.1 1.29 1.29 0 112.57.15 1.29 1.29 0 01-1.27 1.22zM27.31 36v.52a1.59 1.59 0 00-1.31-.67 2.24 2.24 0 000 4.47 1.62 1.62 0 001.34-.63v.52h.93V36zm-1.23 3.5a1.3 1.3 0 01-1.31-1.26.41.41 0 010-.11 1.3 1.3 0 011.37-1.21 1.29 1.29 0 01-.07 2.58z"/><g id="_Group_" data-name="Group"><path fill="#919191" d="M32.51 3.44h14.06v25.27H32.51z"/><path id="_Path_" data-name="Path" d="M33.41 16.08a16 16 0 016.14-12.64 16.07 16.07 0 100 25.27 16 16 0 01-6.14-12.63z" fill="#656565"/><path d="M65.55 16.08a16.07 16.07 0 01-26 12.63 16.08 16.08 0 002.7-22.57 16.42 16.42 0 00-2.7-2.7 16.07 16.07 0 0126 12.63z" fill="#bcbcbc"/></g></g></svg>