<?xml version="1.0" encoding="utf-8"?>
<svg version="1.1" id="Layer_1" xmlns="http://www.w3.org/2000/svg"  x="0px" y="0px"
	 viewBox="0 0 169 75" style="enable-background:new 0 0 169 75;" xml:space="preserve">
<style type="text/css">
	.spv0{fill:#696969;}
	.spv1{fill:#7E7E7E;}
	.spv2{fill:#E8E8E8;}
	.spv3{fill:#9A9999;}
	.spv4{fill:#B1B0B1;}
	.spv5{fill:#939393;}
</style>
<path class="spv0" d="M31.7,0.8l-0.1,0.1v73.4c0,0,0.1,0,0.1,0c17.2-4.2,30.1-21.5,30.1-40.1V14.2L31.7,0.8z"/>
<path class="spv1" d="M31.7,0.8L1.7,14.2v20c0,18.5,12.8,35.9,30.1,40.1C31.7,74.3,31.7,0.8,31.7,0.8z"/>
<path class="spv2" d="M26.8,59.8c0,1.2-0.4,2.1-1.3,2.8c-0.8,0.7-2,1-3.6,1c-1.4,0-2.6-0.3-3.7-0.8v-2.6c0.9,0.4,1.7,0.7,2.3,0.8
	c0.6,0.2,1.2,0.2,1.7,0.2c0.6,0,1.1-0.1,1.4-0.4c0.3-0.2,0.5-0.6,0.5-1.1c0-0.2-0.1-0.5-0.2-0.7c-0.1-0.2-0.4-0.4-0.6-0.6
	c-0.3-0.2-0.8-0.5-1.7-0.9c-0.8-0.4-1.4-0.7-1.8-1.1c-0.4-0.4-0.7-0.7-1-1.2c-0.2-0.5-0.4-1-0.4-1.6c0-1.2,0.4-2.1,1.2-2.7
	c0.8-0.7,1.9-1,3.3-1c0.7,0,1.3,0.1,2,0.2c0.6,0.2,1.3,0.4,2,0.7l-0.9,2.2c-0.7-0.3-1.3-0.5-1.8-0.6s-0.9-0.2-1.4-0.2
	c-0.5,0-1,0.1-1.2,0.4c-0.3,0.2-0.4,0.6-0.4,1c0,0.2,0.1,0.5,0.2,0.6s0.3,0.4,0.6,0.5c0.2,0.2,0.8,0.5,1.8,0.9
	c1.2,0.6,2.1,1.2,2.5,1.8C26.6,58.2,26.8,58.9,26.8,59.8z"/>
<g>
	<path class="spv2" d="M29.2,56.7c0.4,0.4,1,0.7,1.8,1.1c0.3,0.1,0.5,0.2,0.8,0.4v-3c-0.2-0.1-0.4-0.2-0.5-0.2
		c-0.2-0.2-0.4-0.4-0.6-0.5c-0.1-0.2-0.2-0.4-0.2-0.6c0-0.4,0.1-0.7,0.4-1c0.2-0.2,0.5-0.3,0.7-0.3v-2.4c-1.1,0.1-2,0.4-2.7,1
		c-0.8,0.7-1.2,1.6-1.2,2.7c0,0.6,0.1,1.2,0.4,1.6C28.4,55.9,28.7,56.3,29.2,56.7z"/>
	<path class="spv2" d="M31.7,61.3c0,0-0.1,0-0.1,0c-0.5,0-1.1-0.1-1.7-0.2c-0.6-0.2-1.4-0.5-2.3-0.8v2.6c1.1,0.5,2.3,0.8,3.7,0.8
		c0.1,0,0.2,0,0.3,0C31.7,63.6,31.7,61.3,31.7,61.3z"/>
</g>
<path class="spv2" d="M37.8,63.4V50.2h2.8v10.9h5.4v2.3H37.8z"/>
<g>
	<path class="spv2" d="M31.7,52.4c0.1,0,0.3,0,0.5,0c0.5,0,0.9,0.1,1.4,0.2s1.1,0.3,1.8,0.6l0.9-2.2c-0.7-0.3-1.3-0.5-2-0.7
		c-0.6-0.2-1.3-0.2-2-0.2c-0.2,0-0.4,0-0.6,0C31.7,50.1,31.7,52.4,31.7,52.4z"/>
	<path class="spv2" d="M35.6,57.6c-0.5-0.6-1.3-1.2-2.5-1.8c-0.6-0.3-1-0.5-1.3-0.7v3c0.5,0.2,0.8,0.4,1,0.5c0.3,0.2,0.5,0.4,0.6,0.6
		c0.1,0.2,0.2,0.4,0.2,0.7c0,0.5-0.2,0.8-0.5,1.1c-0.3,0.2-0.7,0.4-1.3,0.4v2.3c1.4,0,2.5-0.4,3.3-1c0.8-0.7,1.3-1.6,1.3-2.8
		C36.3,58.9,36,58.2,35.6,57.6z"/>
</g>
<path class="spv3" d="M31.7,7.3v3.4c3,0,5.5,2.5,5.5,5.5v3.6h3.4v-3.6C40.6,11.3,36.6,7.3,31.7,7.3z"/>
<path class="spv4" d="M31.7,7.3c-4.9,0-8.9,4-8.9,8.9v3.6h3.4v-3.6c0-3,2.5-5.5,5.5-5.5V7.3z"/>
<path class="spv1" d="M42.4,19.7h-1.8h-3.4h-5.5V23v5.6v7.1v6.2v4.5c7.1,0,14.2-3.6,14.2-10.7V23.3C45.9,21.3,44.3,19.7,42.4,19.7z"
	/>
<path class="spv5" d="M26.2,19.7h-3.3h-1.8c-1.9,0-3.6,1.6-3.6,3.6v12.4c0,7.2,7.1,10.7,14.2,10.7v-4.5v-6.2v-7.1V23v-3.3
	C31.7,19.7,26.2,19.7,26.2,19.7z"/>
<polygon class="spv1" points="31.7,37 31.7,34.9 31.4,35.3 27.3,31.1 25.6,32.8 31.4,38.5 31.7,38.2 "/>
<polygon class="spv0" points="40.6,29.3 39,27.7 31.7,34.9 31.7,37 31.7,38.2 "/>
<path class="spv2" d="M88.3,24.4c0,1.5-0.7,2.8-2,3.8c-1.3,1-3.1,1.4-5.4,1.4c-1.3,0-2.4-0.1-3.4-0.4c-1-0.2-1.9-0.5-2.7-0.9v-3.7
	h0.5c0.8,0.7,1.8,1.2,2.8,1.5c1,0.4,2,0.5,3,0.5c0.2,0,0.6,0,1-0.1c0.4,0,0.7-0.1,1-0.2c0.3-0.1,0.6-0.3,0.8-0.5
	c0.2-0.2,0.3-0.5,0.3-0.8c0-0.4-0.1-0.6-0.4-0.9c-0.3-0.2-0.7-0.5-1.3-0.6c-0.6-0.1-1.2-0.3-1.9-0.4c-0.7-0.1-1.3-0.3-1.9-0.5
	c-1.3-0.4-2.3-1-2.9-1.8c-0.6-0.7-0.9-1.7-0.9-2.7c0-1.4,0.7-2.6,2-3.6c1.3-0.9,3-1.4,5.1-1.4c1,0,2,0.1,3.1,0.3
	c1,0.2,1.9,0.5,2.6,0.7V18h-0.4c-0.6-0.5-1.4-0.9-2.3-1.3s-1.9-0.5-2.8-0.5c-0.4,0-0.7,0-1,0.1c-0.3,0-0.7,0.1-1,0.2
	s-0.5,0.3-0.7,0.5s-0.3,0.5-0.3,0.7c0,0.4,0.1,0.7,0.5,1c0.3,0.2,0.9,0.4,1.8,0.6c0.6,0.1,1.1,0.2,1.7,0.4s1.1,0.3,1.7,0.5
	c1.2,0.4,2.1,0.9,2.7,1.6C88,22.4,88.3,23.3,88.3,24.4z"/>
<path class="spv2" d="M102.4,29.3H91V13.6h11.3v3h-7.3v2.7h6.8v3h-6.8v3.9h7.3V29.3z"/>
<path class="spv2" d="M112.9,29.6c-1.2,0-2.3-0.2-3.2-0.5c-1-0.4-1.8-0.8-2.5-1.5c-0.7-0.7-1.3-1.5-1.7-2.5c-0.4-1-0.6-2.2-0.6-3.5
	c0-1.2,0.2-2.4,0.6-3.4c0.4-1,0.9-1.9,1.6-2.6c0.7-0.7,1.5-1.2,2.5-1.6c1-0.4,2.1-0.6,3.3-0.6c0.7,0,1.3,0,1.8,0.1s1,0.2,1.5,0.3
	c0.5,0.1,0.9,0.3,1.3,0.5c0.4,0.2,0.7,0.3,1,0.5v3.8H118c-0.2-0.2-0.5-0.4-0.7-0.6c-0.3-0.2-0.6-0.5-1-0.7c-0.4-0.2-0.8-0.4-1.3-0.6
	c-0.5-0.1-0.9-0.2-1.4-0.2c-0.6,0-1.1,0.1-1.6,0.3c-0.5,0.2-1,0.5-1.4,0.9c-0.4,0.4-0.7,0.9-1,1.6c-0.2,0.7-0.4,1.4-0.4,2.4
	c0,1,0.1,1.8,0.4,2.5s0.6,1.2,1.1,1.5c0.4,0.4,0.9,0.7,1.4,0.8c0.5,0.2,1.1,0.2,1.5,0.2s1-0.1,1.4-0.2c0.5-0.1,0.9-0.4,1.3-0.6
	c0.4-0.2,0.7-0.4,1-0.6c0.3-0.2,0.5-0.4,0.7-0.6h0.4v3.8c-0.4,0.2-0.8,0.4-1.1,0.5s-0.7,0.3-1.1,0.4c-0.5,0.1-1,0.2-1.4,0.4
	C114.3,29.6,113.6,29.6,112.9,29.6z"/>
<path class="spv2" d="M135.1,23.6c0,1.9-0.6,3.4-1.8,4.5c-1.2,1-2.9,1.5-5.2,1.5s-4-0.5-5.2-1.5c-1.2-1-1.8-2.5-1.8-4.4v-10h4.1v9.8
	c0,1.1,0.2,1.9,0.7,2.4c0.5,0.5,1.2,0.8,2.2,0.8s1.8-0.2,2.2-0.8c0.5-0.5,0.7-1.3,0.7-2.5v-9.8h4.1L135.1,23.6L135.1,23.6z"/>
<path class="spv2" d="M154,29.3h-4.9l-4.3-5.7H143v5.7h-4V13.6h6.8c0.9,0,1.7,0,2.4,0.1s1.3,0.3,1.9,0.7c0.6,0.4,1.1,0.8,1.4,1.4
	s0.5,1.3,0.5,2.1c0,1.2-0.3,2.1-0.8,2.9c-0.5,0.7-1.3,1.3-2.3,1.8L154,29.3z M147.7,18.4c0-0.4-0.1-0.7-0.2-1s-0.4-0.5-0.8-0.7
	c-0.3-0.1-0.6-0.2-1-0.2c-0.4,0-0.8,0-1.3,0h-1.5v4.2h1.2c0.6,0,1.2,0,1.6-0.1s0.8-0.2,1.1-0.4c0.3-0.2,0.5-0.5,0.6-0.7
	C147.6,19.2,147.7,18.9,147.7,18.4z"/>
<path class="spv2" d="M167.1,29.3h-11.3V13.6h11.3v3h-7.3v2.7h6.8v3h-6.8v3.9h7.3V29.3z"/>
<path class="spv2" d="M85.5,39.5c0,0.6-0.1,1.1-0.3,1.7c-0.2,0.6-0.5,1-0.8,1.4c-0.5,0.5-1.1,0.9-1.7,1.2c-0.6,0.2-1.4,0.4-2.4,0.4
	h-2v4.2h-3.3V35.5h5.5c0.8,0,1.5,0.1,2.1,0.2c0.6,0.1,1.1,0.4,1.5,0.6c0.5,0.4,0.9,0.8,1.2,1.3C85.3,38.1,85.5,38.8,85.5,39.5z
	 M82,39.6c0-0.4-0.1-0.7-0.3-0.9c-0.2-0.2-0.4-0.5-0.7-0.5c-0.4-0.1-0.7-0.2-1-0.2c-0.3,0-0.8,0-1.3,0h-0.6v3.8h1c0.6,0,1,0,1.4-0.1
	c0.4-0.1,0.7-0.2,0.9-0.4c0.2-0.2,0.4-0.4,0.5-0.7C82,40.3,82,39.9,82,39.6z"/>
<path class="spv2" d="M99.3,48.3h-3.4L95,45.7h-4.8l-0.9,2.6H86l4.8-12.8h3.8L99.3,48.3z M94.2,43.3l-1.6-4.6L91,43.3H94.2z"/>
<path class="spv2" d="M112,35.5l-4.7,7.8v5H104v-4.8l-4.8-8h3.8l2.8,5l2.7-5L112,35.5L112,35.5z"/>
<path class="spv2" d="M127.2,48.3h-3.3v-8.6l-2.4,5.6h-2.3l-2.4-5.6v8.6h-3.1V35.5h3.8l2.9,6.4l2.9-6.4h3.8L127.2,48.3L127.2,48.3z"
	/>
<path class="spv2" d="M139.7,48.3h-9.3V35.5h9.3v2.5h-6v2.2h5.6v2.5h-5.6v3.2h6V48.3z"/>
<path class="spv2" d="M154.2,48.3H151l-5.5-8.8v8.8h-3V35.5h3.9l4.7,7.4v-7.4h3V48.3z"/>
<path class="spv2" d="M167.1,37.9h-4v10.3h-3.3V37.9h-4v-2.5h11.3L167.1,37.9L167.1,37.9z"/>
<path class="spv2" d="M101.4,53.8h-2.6c0,0-0.1,0-0.1,0L94.9,63L91,53.8c0,0,0,0-0.1,0h-2.7c0,0,0,0-0.1,0c0,0,0,0,0,0.1l5.4,12
	c0,0,0,0,0.1,0h2.5c0,0,0.1,0,0.1,0l5.4-12C101.5,53.9,101.5,53.8,101.4,53.8C101.5,53.8,101.5,53.8,101.4,53.8"/>
<path class="spv2" d="M127.8,65.9c0,0,0.1,0,0.1-0.1v-12c0,0,0-0.1-0.1-0.1h-2.2c0,0-0.1,0-0.1,0.1v12c0,0,0.1,0.1,0.1,0.1
	L127.8,65.9L127.8,65.9z"/>
<path class="spv2" d="M140,53.8h-10.1c0,0,0,0-0.1,0c0,0,0,0,0,0.1v2.3c0,0,0,0.1,0.1,0.1h3.9v9.7c0,0,0,0.1,0.1,0.1h2.2
	c0,0,0,0,0.1,0s0,0,0-0.1v-9.7h3.9c0,0,0,0,0.1,0c0,0,0,0,0-0.1L140,53.8C140,53.8,140,53.8,140,53.8"/>
<path class="spv2" d="M109.5,53.8h-3.6c-2,0-3.7,1.7-3.7,3.8v8.3c0,0,0,0,0,0.1c0,0,0,0,0.1,0h2.2c0,0,0.1,0,0.1-0.1v-4.2h6.4v4.2
	c0,0,0,0.1,0.1,0.1h2.2c0,0,0,0,0.1,0c0,0,0,0,0-0.1v-8.3C113.3,55.5,111.6,53.8,109.5,53.8 M104.5,59.3v-1.7c0-0.8,0.6-1.4,1.4-1.4
	h3.6c0.8,0,1.4,0.6,1.4,1.4v1.7H104.5z"/>
<path class="spv2" d="M167.1,57.6c0-2.1-1.7-3.8-3.7-3.8h-7.6c0,0-0.1,0-0.1,0.1v12c0,0,0,0.1,0.1,0.1h2.2c0,0,0,0,0.1,0
	c0,0,0,0,0-0.1v-4.2h5.4c0.7,0,1.4,0.6,1.4,1.2v3c0,0,0,0.1,0.1,0.1h2.2c0,0,0.1,0,0.1,0c0,0,0,0,0-0.1v-2.8l-0.1-0.5c0,0,0,0,0,0
	c-0.1-0.8-0.5-1.4-1-2c0.7-0.7,1-1.6,1.1-2.6C167.1,57.9,167.1,57.6,167.1,57.6 M164.8,57.9c0,0.7-0.6,1.3-1.2,1.3H158v-3.1h5.4
	c0.8,0,1.4,0.6,1.4,1.4C164.8,57.6,164.8,57.9,164.8,57.9"/>
<path class="spv2" d="M123.5,63.8C123.5,63.7,123.4,63.7,123.5,63.8l-5.5-0.1v-9.8c0,0,0,0,0-0.1c0,0,0,0-0.1,0h-2.2
	c0,0-0.1,0-0.1,0.1v11c0,0.5,0.3,1.1,1.1,1.1h6.7c0,0,0,0,0.1,0s0,0,0-0.1V63.8z"/>
<path class="spv4" d="M149.6,53.8H145c-2,0-3.7,1.7-3.7,3.8v4.6c0,2,1.5,3.6,3.4,3.8h0.7h4.6l0,0h0c1.9-0.2,3.4-1.8,3.4-3.8v-4.6
	C153.4,55.5,151.7,53.8,149.6,53.8 M151,62.1c0,0.7-0.5,1.3-1.2,1.4h-5c-0.7-0.1-1.2-0.7-1.2-1.4v-4.6c0-0.8,0.6-1.4,1.4-1.4h4.6
	c0.8,0,1.4,0.6,1.4,1.4L151,62.1L151,62.1L151,62.1z"/>
<g>
	<path class="spv2" d="M79.6,57.5c0,0.3-0.1,0.6-0.2,0.8s-0.3,0.4-0.5,0.6c-0.2,0.2-0.5,0.3-0.8,0.4c-0.3,0.1-0.6,0.1-1.1,0.1h-2.3
		v-6.3h1.9c0.5,0,0.8,0,1,0c0.2,0,0.5,0.1,0.7,0.2c0.2,0.1,0.4,0.3,0.5,0.5C79,54,79,54.3,79,54.5c0,0.3-0.1,0.6-0.2,0.8
		c-0.1,0.2-0.4,0.4-0.6,0.5v0c0.4,0.1,0.8,0.3,1,0.6C79.5,56.7,79.6,57.1,79.6,57.5z M78.2,54.7c0-0.1,0-0.3-0.1-0.4
		c0-0.1-0.1-0.2-0.2-0.2c-0.1-0.1-0.3-0.1-0.5-0.1c-0.2,0-0.4,0-0.7,0h-1v1.8h1.1c0.2,0,0.5,0,0.6,0c0.1,0,0.3-0.1,0.4-0.2
		c0.1-0.1,0.2-0.2,0.3-0.3C78.2,55,78.2,54.9,78.2,54.7z M78.7,57.5c0-0.2,0-0.5-0.1-0.6c-0.1-0.1-0.2-0.3-0.4-0.4
		c-0.1-0.1-0.3-0.1-0.5-0.1s-0.4,0-0.7,0h-1.3v2.4h1.1c0.4,0,0.7,0,0.9-0.1c0.2,0,0.4-0.1,0.6-0.2c0.1-0.1,0.3-0.2,0.4-0.4
		C78.7,58,78.7,57.8,78.7,57.5z"/>
	<path class="spv2" d="M84.8,54.7l-2.7,6.5h-0.8l0.9-2l-1.9-4.5h0.9l1.4,3.5l1.5-3.5L84.8,54.7L84.8,54.7z"/>
</g>
</svg>
