<svg xmlns="http://www.w3.org/2000/svg" width="32" height="32" viewBox="0 0 32 32"><path fill="#777777" d="M18.688 21.25v-2.813c0-.563-.188-.875-.5-.875-.188 0-.438.125-.625.313v4c.188.188.438.25.625.25.313 0 .5-.25.5-.875zM22 19.063h1.188V18.5c0-.625-.25-.938-.625-.938S22 17.875 22 18.5zm-10.187-4.75v1.25h-1.438v7.563H9.062v-7.563H7.624v-1.25zm3.562 2.25v6.563h-1.188v-.688c-.5.5-.938.813-1.375.813-.375 0-.625-.188-.75-.5-.063-.188-.125-.5-.125-1v-5.188h1.188v4.875c0 .25 0 .438.063.438 0 .188.063.25.25.25.25 0 .5-.188.75-.563v-5zm4.5 2v2.625c0 .625-.063 1.063-.125 1.313-.125.5-.438.75-.938.75-.438 0-.813-.25-1.25-.75v.625h-1.188v-8.813h1.188v2.875c.438-.438.813-.688 1.25-.688.5 0 .813.25.938.75.063.25.125.688.125 1.313zm4.5 2.312v.188c0 .313 0 .563-.063.75 0 .25-.125.5-.25.688-.313.5-.813.75-1.438.75s-1.125-.25-1.438-.688c-.25-.313-.375-.813-.375-1.563v-2.313c0-.688.125-1.188.375-1.5a1.66 1.66 0 011.375-.688c.625 0 1.125.25 1.438.688.25.313.375.813.375 1.5v1.375h-2.375v1.188c0 .563.188.875.563.875.313 0 .5-.125.563-.438v-.125-.688zM16.313 6.188v2.75c0 .625-.188.938-.563.938s-.563-.313-.563-.938v-2.75c0-.625.188-.938.563-.938s.563.313.563.938zm9.5 12.687c0-2.063-.125-3.625-.313-4.625a2.455 2.455 0 00-.813-1.313 2.159 2.159 0 00-1.313-.625c-1.625-.188-4.063-.25-7.375-.25-3.25 0-5.75.063-7.313.25-.563.063-1 .25-1.375.625s-.688.813-.75 1.313c-.25 1.063-.375 2.563-.375 4.625 0 2.125.125 3.688.375 4.688.063.5.375.938.75 1.25.375.375.813.563 1.313.625 1.625.188 4.125.313 7.375.313s5.75-.125 7.375-.313c.5-.063.938-.25 1.313-.625.375-.313.688-.75.75-1.25.25-1 .375-2.563.375-4.688zM12.313 7.25L13.938 2h-1.313l-.938 3.438L10.749 2H9.374l.438 1.188s.125.438.375 1.25c.438 1.25.688 2.188.813 2.813v3.625h1.313zM17.5 8.688V6.375c0-.688-.125-1.188-.375-1.563-.375-.438-.813-.625-1.375-.625-.625 0-1.063.188-1.438.625-.25.375-.375.875-.375 1.563v2.313c0 .688.125 1.25.375 1.563.375.5.813.688 1.438.688.563 0 1-.188 1.375-.688.25-.313.375-.813.375-1.563zm3.25 2.187h1.188V4.25H20.75v5.063c-.25.375-.5.563-.75.563-.188 0-.313-.125-.313-.313V4.25h-1.188V9.5c0 .438 0 .75.063.938.188.375.438.5.813.5.438 0 .875-.25 1.375-.813zm8.938-5.437v17.125c0 1.438-.5 2.625-1.5 3.625s-2.188 1.5-3.625 1.5H7.438c-1.438 0-2.625-.5-3.625-1.5s-1.5-2.188-1.5-3.625V5.438c0-1.438.5-2.625 1.5-3.625s2.188-1.5 3.625-1.5h17.125c1.438 0 2.625.5 3.625 1.5s1.5 2.188 1.5 3.625z"/></svg>